<svg width="1728" height="1117" viewBox="0 0 1728 1117" fill="none" xmlns="http://www.w3.org/2000/svg">
<g clip-path="url(#clip0_423_494)">
<rect width="1728" height="1117" fill="#FFFFFE"/>
<rect width="2066.08" height="768.775" transform="translate(-185.295 846.598) rotate(-15)" fill="#37474F"/>
<rect width="2205.84" height="899.114" transform="translate(-459 40.7419) rotate(-15)" fill="#263238"/>
<path opacity="0.2" d="M1234.61 670.692V649.736L1204.34 632.262V611.306L1174.08 593.814V572.875L1143.84 555.4L1013.07 626.725L1047.04 646.238V667.194L1077.3 684.651V705.624L1107.56 723.082V744.055L1240.12 935.631C1371.4 913.469 1471.61 846.627 1513.89 760.239C1518.78 750.254 1523.14 740.194 1526.95 730.062L1234.61 670.692Z" fill="#79503C"/>
<path opacity="0.15" d="M1048.21 262.153C959.733 313.099 888 449.636 888 567.186C888 637.034 913.337 684.465 952.532 700.768L968.716 691.427L1127.84 599.571L1144.43 589.993C1183.34 528.772 1208.49 452.438 1208.49 382.811C1208.42 265.294 1136.7 211.257 1048.21 262.153Z" fill="#FF7F41"/>
<path opacity="0.15" d="M1048.21 296.151C973.862 338.946 913.592 453.677 913.592 552.462C913.592 651.248 973.862 696.658 1048.21 653.897C1122.56 611.136 1182.84 496.353 1182.84 397.568C1182.84 298.783 1122.57 253.373 1048.21 296.151Z" fill="#FF7F41"/>
<path opacity="0.15" d="M1048.21 320.113C984.051 357.168 932.035 456.547 932.035 542.086C932.035 627.625 984.051 666.973 1048.21 629.935C1112.37 592.897 1164.38 493.5 1164.38 407.944C1164.38 322.388 1112.39 283.041 1048.21 320.113Z" fill="#FF7F41"/>
<path d="M979.703 546.145C979.703 472.035 1024.77 385.936 1080.36 353.822C1104.86 339.693 1127.3 338.386 1144.74 347.692L1122.13 334.615C1104.47 324.426 1081.38 325.275 1056.17 339.846C1000.56 371.959 955.504 458.059 955.504 532.169C955.504 572.739 969.005 601.303 990.351 613.598C994.002 615.687 1007.57 623.55 1013.11 626.742C992.542 613.989 979.703 585.798 979.703 546.145Z" fill="#79503C"/>
<path opacity="0.3" d="M979.703 546.145C979.703 472.035 1024.77 385.936 1080.36 353.822C1104.86 339.693 1127.3 338.386 1144.74 347.692L1122.13 334.615C1104.47 324.426 1081.38 325.275 1056.17 339.846C1000.56 371.959 955.504 458.059 955.504 532.169C955.504 572.739 969.005 601.303 990.351 613.598C994.002 615.687 1007.57 623.55 1013.11 626.742C992.542 613.989 979.703 585.798 979.703 546.145Z" fill="#FF7F41"/>
<path d="M1119.91 369.361C1128.69 381.079 1133.39 399.725 1132.34 423.976C1129.81 483.413 1093.65 554.127 1051.61 581.791C1038.84 590.197 1026.96 593.678 1016.74 592.744C1029.51 609.726 1050.91 612.155 1075.81 595.767C1117.87 568.103 1154.03 497.44 1156.56 437.935C1158.29 396.533 1143.31 371.45 1119.91 369.361Z" fill="#79503C"/>
<path opacity="0.15" d="M1120.98 369.977C1129.42 381.864 1133.87 400.303 1132.84 423.997C1132.84 423.997 1132.84 423.997 1132.84 423.997L1132.34 423.976L1120.98 369.977ZM1120.98 369.977C1131.98 371.324 1141.04 377.936 1147.22 389.147C1153.61 400.748 1156.92 417.269 1156.06 437.914C1154.79 467.582 1145.15 500.053 1130.56 528.564C1115.97 557.08 1096.47 581.581 1075.53 595.349L1075.53 595.349C1063.14 603.504 1051.68 606.942 1041.76 606.271C1032.21 605.624 1024.05 601.163 1017.82 593.327C1027.93 593.928 1039.51 590.35 1051.88 582.208L1120.98 369.977Z" fill="black" stroke="black"/>
<path d="M1005.35 387.566L1029.55 401.542L1031.48 398.944L1007.28 384.934C1006.62 385.834 1005.99 386.632 1005.35 387.566Z" fill="#79503C"/>
<path d="M994.24 468.503L969.956 454.56C969.616 455.494 969.293 456.462 968.971 457.413L993.17 471.39C993.51 470.405 993.816 469.437 994.24 468.503Z" fill="#79503C"/>
<path d="M1104.62 328.451L1128.84 342.478C1129.83 342.648 1130.81 342.818 1131.78 343.022L1107.56 329.045C1106.59 328.791 1105.61 328.604 1104.62 328.451Z" fill="#79503C"/>
<path d="M983.117 509.549C983.304 508.496 983.508 507.426 983.711 506.373L959.512 492.397C959.291 493.45 959.087 494.503 958.9 495.572L983.117 509.549Z" fill="#79503C"/>
<path d="M1029.14 360.394L1053.34 374.371C1054.17 373.573 1055.04 372.774 1055.85 372.01L1031.6 358.034C1030.8 358.798 1029.9 359.596 1029.14 360.394Z" fill="#79503C"/>
<path d="M983.236 579.413C983.015 578.479 982.811 577.528 982.607 576.577L982.421 576.153L958.34 562.244C958.561 563.331 958.781 564.401 959.036 565.454L983.236 579.413Z" fill="#79503C"/>
<path d="M1083.52 329.079C1082.5 329.283 1081.44 329.555 1080.41 329.81L1104.62 343.786C1105.68 343.514 1106.73 343.276 1107.77 343.073L1083.52 329.079Z" fill="#79503C"/>
<path d="M1081.87 353.007L1057.67 339.082C1057.16 339.37 1056.67 339.608 1056.17 339.897L1054.7 340.797L1078.9 354.773L1080.36 353.873L1081.87 353.007Z" fill="#79503C"/>
<path d="M984.832 420.596L1009.03 434.572L1010.46 431.923L986.259 417.947C985.749 418.796 985.291 419.679 984.832 420.596Z" fill="#79503C"/>
<path d="M993.51 606.075C992.967 605.141 992.457 604.207 991.931 603.239L967.748 589.28C968.258 590.248 968.801 591.182 969.344 592.116L993.51 606.075Z" fill="#79503C"/>
<path d="M955.504 532.441L979.704 546.434V546.145C979.704 545.109 979.704 544.039 979.704 542.987L955.487 529.01C955.487 530.063 955.487 531.133 955.487 532.169L955.504 532.441Z" fill="#79503C"/>
<path d="M1080.36 353.822C1024.77 385.935 979.704 472.035 979.704 546.145C979.704 620.255 1024.77 654.338 1080.36 622.242C1135.94 590.146 1181.04 504.046 1181.04 429.919C1181.04 355.792 1135.96 321.726 1080.36 353.822ZM1156.5 437.935C1153.97 497.372 1117.82 568.086 1075.75 595.75C1033.69 623.414 1001.68 597.618 1004.21 538.13C1006.74 478.641 1042.93 407.978 1084.96 380.314C1126.99 352.65 1159.05 378.446 1156.5 437.935Z" fill="#FF7F41"/>
<g opacity="0.15">
<path d="M1059.76 402.68C1060.57 401.78 1061.37 400.863 1062.2 399.98L1055.83 372.01C1054.99 372.774 1054.14 373.556 1053.32 374.354L1059.76 402.68Z" fill="black"/>
<path d="M1078.88 354.705V384.696C1079.86 383.932 1080.85 383.184 1081.85 382.471V352.99L1080.36 353.822L1078.88 354.705Z" fill="black"/>
<path d="M1099.34 372.775C1100.43 372.35 1101.52 371.96 1102.59 371.62L1107.68 343.056C1106.65 343.26 1105.59 343.497 1104.54 343.752L1099.34 372.775Z" fill="black"/>
<path d="M1017.29 475.975L1018.35 473.156L994.24 468.486C993.901 469.437 993.561 470.388 993.238 471.339L1017.29 475.975Z" fill="black"/>
<path d="M1028.71 449.466L1030.07 446.749L1010.44 431.906L1009.03 434.573L1028.71 449.466Z" fill="black"/>
<path d="M1176.92 394.325L1155.57 414.347C1155.74 415.536 1155.89 416.741 1156.03 417.998L1177.78 397.619C1177.46 396.533 1177.21 395.412 1176.92 394.325Z" fill="black"/>
<path d="M1004.94 528.433L979.738 542.97C979.738 544.039 979.738 545.092 979.738 546.145V546.434L1004.63 532.067C1004.68 530.861 1004.82 529.639 1004.94 528.433Z" fill="black"/>
<path d="M1009.01 503.809C1009.27 502.739 1009.54 501.669 1009.8 500.582L983.694 506.339C983.491 507.392 983.287 508.462 983.1 509.515L1009.01 503.809Z" fill="black"/>
<path d="M1119.4 369.344C1120.43 369.429 1121.44 369.548 1122.42 369.718L1131.8 342.937C1130.81 342.733 1129.83 342.546 1128.82 342.376L1119.4 369.344Z" fill="black"/>
<path d="M1149.02 391.625C1149.49 392.627 1149.95 393.679 1150.39 394.749L1167.88 371.195C1167.36 370.244 1166.8 369.327 1166.18 368.427L1149.02 391.625Z" fill="black"/>
<path d="M1136.65 375.848C1137.45 376.46 1138.23 377.105 1139 377.801L1152.17 352.566C1151.38 351.937 1150.58 351.343 1149.75 350.766L1136.65 375.848Z" fill="black"/>
<path d="M1042.93 424.74L1044.76 421.972L1031.47 398.927L1029.53 401.542L1042.93 424.74Z" fill="black"/>
<path d="M1101.48 572.807C1100.68 573.741 1099.78 574.641 1099.05 575.524L1105.42 603.579C1106.27 602.815 1107.12 601.982 1107.94 601.184L1101.48 572.807Z" fill="black"/>
<path d="M1133.05 524.561C1132.61 525.478 1132.15 526.378 1131.69 527.278L1151.38 542.155L1152.75 539.454L1133.05 524.561Z" fill="black"/>
<path d="M1118.69 550L1116.85 552.785L1130.18 575.881C1130.83 575.015 1131.49 574.183 1132.12 573.283L1118.69 550Z" fill="black"/>
<path d="M1144.4 497.406C1144.06 498.357 1143.73 499.308 1143.38 500.243L1167.49 504.896C1167.83 503.945 1168.15 502.994 1168.48 502.043L1144.4 497.406Z" fill="black"/>
<path d="M1152.36 469.233C1152.14 470.303 1151.92 471.373 1151.66 472.426L1177.65 466.737C1177.83 465.667 1178 464.614 1178.19 463.561L1152.36 469.233Z" fill="black"/>
<path d="M1181.04 426.795L1156.32 440.975C1156.32 442.164 1156.16 443.352 1156.08 444.558L1181.04 430.208V429.919C1181.04 428.867 1181.04 427.831 1181.04 426.795Z" fill="black"/>
<path d="M1081.85 621.342V591.386C1080.87 592.15 1079.86 592.897 1078.88 593.61V623.091L1080.36 622.242C1080.85 621.954 1081.36 621.631 1081.85 621.342Z" fill="black"/>
<path d="M1010.9 582.674C1010.44 581.638 1010 580.568 1009.58 579.447L991.931 603.222C992.44 604.19 992.984 605.141 993.527 606.058L1010.9 582.674Z" fill="black"/>
<path d="M1023.01 599.401C1022.23 598.756 1021.46 598.077 1020.72 597.346L1007.47 622.684C1008.25 623.329 1009.05 623.94 1009.86 624.535L1023.01 599.401Z" fill="black"/>
<path d="M1060.81 603.545C1059.72 603.952 1058.65 604.309 1057.58 604.649L1052.49 633.128C1053.54 632.924 1054.59 632.703 1055.65 632.449L1060.81 603.545Z" fill="black"/>
<path d="M1040.35 606.653C1039.33 606.551 1038.34 606.398 1037.36 606.211L1028.09 632.873C1029.07 633.111 1030.06 633.298 1031.04 633.468L1040.35 606.653Z" fill="black"/>
<path d="M1004.89 559.188C1004.75 557.965 1004.63 556.708 1004.53 555.435L982.455 576.034C982.692 577.172 982.93 578.293 983.185 579.43L1004.89 559.188Z" fill="black"/>
</g>
<path d="M1107.53 744.072L992.491 677.655V614.77L1016.71 628.746L1047 646.255V667.211L1077.27 684.669V705.642L1107.53 723.099V744.072Z" fill="#263238"/>
<path d="M1016.74 628.78L1143.84 555.4L1174.08 572.875L1047 646.255L1016.74 628.78Z" fill="#455A64"/>
<path d="M1047 646.255V667.211L1174.08 593.831V572.875L1047 646.255Z" fill="#37474F"/>
<path d="M1047 667.211L1174.08 593.831L1204.34 611.306L1077.27 684.669L1047 667.211Z" fill="#455A64"/>
<path d="M1077.27 684.669V705.642L1204.34 632.262V611.306L1077.27 684.669Z" fill="#37474F"/>
<path d="M1077.27 705.642L1204.34 632.262L1234.61 649.736L1107.53 723.099L1077.27 705.642Z" fill="#455A64"/>
<path d="M1107.53 723.099V744.072L1234.61 670.692V649.736L1107.53 723.099Z" fill="#37474F"/>
<path d="M1143.92 430.785C1141.39 490.223 1105.22 560.937 1063.17 588.618C1047.55 598.892 1033.32 601.796 1021.7 598.314C1009.81 587.463 1003.02 566.677 1004.21 538.164C1006.76 478.726 1042.93 408.012 1084.96 380.348C1100.6 370.057 1114.86 367.17 1126.46 370.669C1138.42 381.537 1145.14 402.255 1143.92 430.785Z" fill="#79503C"/>
<path opacity="0.9" d="M1143.92 430.785C1141.39 490.223 1105.22 560.937 1063.17 588.618C1047.55 598.892 1033.32 601.796 1021.7 598.314C1009.81 587.463 1003.02 566.677 1004.21 538.164C1006.76 478.726 1042.93 408.012 1084.96 380.348C1100.6 370.057 1114.86 367.17 1126.46 370.669C1138.42 381.537 1145.14 402.255 1143.92 430.785Z" fill="white"/>
<path opacity="0.1" d="M1062.98 558.151C1049.86 559.671 1037.71 565.847 1028.75 575.558C1023.91 580.754 1019.96 586.717 1017.06 593.203C1018.46 595.03 1020.01 596.734 1021.7 598.297C1024.2 599.028 1026.78 599.472 1029.38 599.622C1030.06 597.924 1030.57 596.14 1031.16 594.425C1034.1 586.439 1039.33 579.499 1046.2 574.48C1053.07 569.461 1061.28 566.586 1069.78 566.218C1075.6 566.065 1081.38 567.118 1087.17 567.576C1089.46 565.046 1091.7 562.482 1093.96 559.697C1083.7 559.17 1073.12 557.132 1062.98 558.151ZM1060.47 471.186C1072.36 472.731 1085.33 473.393 1095.73 467.314C1107.49 460.419 1113.08 446.748 1118.75 434.368C1124.03 422.872 1131.25 410.729 1142.78 406.28C1140.39 390.198 1134.65 378.09 1126.45 370.618C1120.85 369.007 1114.95 368.757 1109.24 369.887C1103.49 376.475 1099.3 384.277 1096.98 392.711C1094.27 402.221 1093.31 412.326 1088.95 421.173C1084.51 430.069 1076.96 437.033 1067.74 440.754C1060.47 443.641 1052.57 444.337 1044.85 445.526C1039.46 446.322 1034.13 447.49 1028.9 449.024C1024.87 457.036 1021.27 465.262 1018.13 473.665C1020.22 472.599 1022.39 471.707 1024.62 470.999C1036.15 467.45 1048.58 469.657 1060.47 471.186ZM1072.63 411.748C1076.43 405.176 1077.72 397.517 1079.81 390.198C1080.56 387.464 1081.51 384.798 1082.39 382.131C1079.68 384.045 1076.98 386.128 1074.31 388.381C1070.47 397.704 1066.74 407.061 1059.66 414.092C1056.05 417.628 1051.74 420.37 1047 422.141C1046.11 422.44 1045.19 422.651 1044.25 422.77C1042.52 425.317 1040.82 427.921 1039.16 430.581C1042.99 430.274 1046.79 429.626 1050.5 428.645C1059.7 425.885 1067.58 419.857 1072.65 411.697L1072.63 411.748ZM1143.95 422.056C1140.63 423.778 1137.63 426.045 1135.06 428.764C1128.74 435.693 1125.34 444.677 1121.47 453.236C1116.07 465.429 1109.02 477.843 1097.29 484.16C1089.48 488.355 1080.31 489.408 1071.53 489.645C1054.8 490.104 1037.82 487.947 1021.46 491.53C1017.94 492.3 1014.49 493.397 1011.17 494.808C1010.04 498.872 1009.05 502.92 1008.2 506.95C1012.01 504.935 1016.04 503.367 1020.21 502.28C1044.37 496.167 1071.15 509.582 1094.3 500.582C1111.28 493.942 1121.62 477.079 1129.96 460.878C1133.36 454.272 1137.01 447.292 1142.87 442.91C1143.32 438.869 1143.64 434.861 1143.82 430.887C1144.04 427.745 1144.07 424.841 1144.02 422.005L1143.95 422.056ZM1083.67 521.045C1070.59 521.521 1057.53 520.298 1044.46 520.111C1037.76 519.747 1031.04 520.434 1024.55 522.149C1018.87 524.07 1013.53 526.872 1008.73 530.453C1007.25 531.506 1005.82 532.593 1004.41 533.697C1004.31 535.208 1004.21 536.703 1004.14 538.18C1003.41 555.417 1005.6 569.801 1010.07 580.907C1012.95 578.402 1015.52 575.55 1017.71 572.416C1026.69 560.274 1035.35 546.841 1048.97 540.337C1063.6 533.357 1080.83 535.854 1096.73 532.661C1103.68 531.241 1110.36 528.712 1116.51 525.172C1119.03 520.462 1121.4 515.662 1123.63 510.771C1122.95 511.179 1122.25 511.569 1121.56 511.96C1110.06 518.26 1096.8 520.519 1083.74 520.994L1083.67 521.045Z" fill="#79503C"/>
<path d="M1222.03 404.895C1222.03 410.669 1220.95 415.798 1213.88 417.037C1221.12 417.343 1221.62 422.132 1222.03 428.823C1222.27 422.183 1222.9 417.343 1229.45 417.037C1222.69 415.916 1222.03 410.669 1222.03 404.895Z" fill="#79503C"/>
<path d="M1057.2 712.289C1057.2 718.063 1056.12 723.192 1049.05 724.431C1056.29 724.737 1056.8 729.526 1057.2 736.217C1057.44 729.56 1058.07 724.737 1064.62 724.431C1057.83 723.293 1057.2 718.063 1057.2 712.289Z" fill="#79503C"/>
<path d="M1004.1 534.384C1004.1 536.914 1003.62 539.139 1000.53 539.682C1003.69 539.818 1003.93 541.941 1004.1 544.777C1004.2 541.873 1004.47 539.682 1007.34 539.682C1004.37 539.19 1004.1 536.914 1004.1 534.384Z" fill="#79503C"/>
<path d="M990.209 544.318C990.209 550.075 989.105 555.204 982.058 556.444C989.292 556.749 989.801 561.538 990.209 568.246C990.43 561.589 991.058 556.766 997.63 556.444C990.837 555.408 990.209 550.075 990.209 544.318Z" fill="#E0E0E0"/>
<path d="M983.586 515.381C983.586 518.353 983.026 520.968 979.408 521.613C983.111 521.766 983.382 524.246 983.586 527.659C983.705 524.263 984.028 521.766 987.407 521.613C983.909 521.036 983.586 518.353 983.586 515.381Z" fill="#E0E0E0"/>
<path d="M1202.42 387.539C1202.42 390.936 1202.33 394.162 1197.46 394.927C1202.55 394.927 1202.21 398.102 1202.47 402.178C1202.6 398.102 1202.96 395.181 1206.99 394.994C1202.83 394.298 1202.94 392.379 1202.42 387.539Z" fill="#E0E0E0"/>
<path d="M1244.77 544.709C1244.41 551.077 1243.91 553.828 1238.15 554.593C1244.01 554.915 1244.5 558.804 1244.84 564.221C1245.03 558.804 1245.5 554.864 1250.85 554.593C1245.35 553.71 1245.21 551.162 1244.77 544.709Z" fill="#E0E0E0"/>
<path d="M1033.8 712.34C1033.6 716.059 1033.31 717.655 1029.95 718.114C1033.34 718.301 1033.65 720.542 1033.85 723.701C1033.96 720.542 1034.23 718.25 1037.35 718.114C1034.19 717.57 1034.06 716.11 1033.8 712.34Z" fill="#E0E0E0"/>
<path d="M1232.75 398.985C1232.75 401.04 1232.75 403.01 1229.74 403.469C1232.87 403.469 1232.63 405.388 1232.78 407.85C1232.87 405.388 1233.07 403.621 1235.5 403.503C1232.99 403.078 1233.05 401.923 1232.75 398.985Z" fill="#E0E0E0"/>
<path d="M1239.15 563.22C1239.15 565.258 1239.15 567.227 1236.14 567.686C1239.25 567.686 1239.01 569.622 1239.17 572.084C1239.25 569.622 1239.47 567.839 1241.9 567.737C1239.39 567.295 1239.46 566.141 1239.15 563.22Z" fill="#E0E0E0"/>
<path d="M1049.48 704.239C1049.48 706.277 1049.48 708.247 1046.47 708.706C1049.6 708.706 1049.36 710.625 1049.51 713.087C1049.6 710.625 1049.82 708.858 1052.24 708.74C1049.77 708.332 1049.83 707.16 1049.48 704.239Z" fill="#E0E0E0"/>
<path d="M1476.62 659.532L1530.09 628.658L1610.83 675.257L1649.56 652.892L1568.85 606.293L1595.07 591.145L1552.61 566.605L1526.39 581.753L1479.59 554.769L1440.83 577.151L1487.59 604.204L1387.88 661.671L1419.08 679.673L1670.72 747.227L1675.61 744.408C1678.01 734.763 1680 724.919 1681.57 714.877L1476.62 659.532Z" fill="#263238"/>
<path d="M1481.64 422.648L1479.64 423.803V358.557L1455.42 344.581L1425.46 361.869L1450.17 268.976L1425.97 255L1384.32 279.047L1317 530.756V566.843L1341.2 580.819L1416.75 537.175V563.175L1440.97 577.151L1479.59 554.769V500.834L1505.79 485.702V436.624L1481.64 422.648ZM1416.75 460.161L1396.26 472.049L1416.75 394.916V460.161Z" fill="#246BFD"/>
<path opacity="0.3" d="M1481.64 422.648L1479.64 423.803V358.557L1455.42 344.581L1425.46 361.869L1450.17 268.976L1425.97 255L1384.32 279.047L1317 530.756V566.843L1341.2 580.819L1416.75 537.175V563.175L1440.97 577.151L1479.59 554.769V500.834L1505.79 485.702V436.624L1481.64 422.648ZM1416.75 460.161L1396.26 472.049L1416.75 394.916V460.161Z" fill="black"/>
<path d="M1479.62 451.755V358.557L1440.88 380.923V474.138L1387.39 505.011L1450.17 268.976L1408.52 293.023L1341.2 544.732V580.752L1440.88 523.216V577.151L1479.62 554.769V500.834L1505.84 485.702V436.624L1479.62 451.755Z" fill="#246BFD"/>
<path opacity="0.3" d="M1479.62 451.755V358.557L1440.88 380.923V474.138L1387.39 505.011L1450.17 268.976L1408.52 293.023L1341.2 544.732V580.752L1440.88 523.216V577.151L1479.62 554.769V500.834L1505.84 485.702V436.624L1479.62 451.755Z" fill="white"/>
<path d="M1450.17 268.976L1425.97 255L1384.32 279.047L1408.52 293.023L1450.17 268.976Z" fill="#246BFD"/>
<path opacity="0.5" d="M1450.17 268.976L1425.97 255L1384.32 279.047L1408.52 293.023L1450.17 268.976Z" fill="white"/>
<path d="M1455.42 344.581L1479.62 358.557L1440.88 380.923L1423.12 370.665L1425.47 361.869L1455.42 344.581Z" fill="#246BFD"/>
<path opacity="0.5" d="M1455.42 344.581L1479.62 358.557L1440.88 380.923L1423.12 370.665L1425.47 361.869L1455.42 344.581Z" fill="white"/>
<path d="M1440.88 474.138L1416.67 460.161L1396.17 471.998L1387.39 505.011L1440.88 474.138Z" fill="#246BFD"/>
<path opacity="0.5" d="M1440.88 474.138L1416.67 460.161L1396.17 471.998L1387.39 505.011L1440.88 474.138Z" fill="white"/>
<path d="M1505.84 436.624L1481.64 422.648L1479.62 423.803V451.755L1505.84 436.624Z" fill="#246BFD"/>
<path opacity="0.5" d="M1479.62 451.755L1505.84 436.624L1481.64 422.648L1479.62 423.803V451.755Z" fill="white"/>
<path d="M1341.2 544.733L1317 530.756L1384.32 279.047L1408.52 293.023L1341.2 544.733Z" fill="#246BFD"/>
<path opacity="0.15" d="M1341.2 544.733L1317 530.756L1384.32 279.047L1408.52 293.023L1341.2 544.733Z" fill="black"/>
<path d="M1041.07 876.161L998.559 851.622L972.356 866.753L925.638 839.786L886.885 862.151L933.603 889.119L833.917 946.671L865.114 964.689L1116.77 1032.24L1158.43 1008.2L922.615 944.549L976.109 913.658L1056.83 960.274L1095.58 937.892L1014.85 891.293L1041.07 876.161Z" fill="#263238"/>
<path d="M927.642 707.648L925.638 708.819V643.506L901.421 629.53L871.465 646.903L896.174 554.01L871.974 540.034L830.317 564.047L763 815.773V851.792L787.267 865.768L862.753 822.192V848.175L886.953 862.151L925.706 839.786V785.834L951.909 770.702V721.624L927.642 707.648ZM862.685 745.161L842.188 757.049L862.685 679.984V745.161Z" fill="#246BFD"/>
<path opacity="0.3" d="M927.642 707.648L925.638 708.819V643.506L901.421 629.53L871.465 646.903L896.174 554.01L871.974 540.034L830.317 564.047L763 815.773V851.792L787.267 865.768L862.753 822.192V848.175L886.953 862.151L925.706 839.786V785.834L951.909 770.702V721.624L927.642 707.648ZM862.685 745.161L842.188 757.049L862.685 679.984V745.161Z" fill="black"/>
<path d="M925.638 736.772V643.557L886.885 665.923V759.138L833.391 790.011L896.191 553.976L854.534 578.023L787.199 829.732V865.769L886.885 808.216V862.151L925.638 839.786V785.834L951.841 770.702V721.624L925.638 736.772Z" fill="#246BFD"/>
<path opacity="0.3" d="M925.638 736.772V643.557L886.885 665.923V759.138L833.391 790.011L896.191 553.976L854.534 578.023L787.199 829.732V865.769L886.885 808.216V862.151L925.638 839.786V785.834L951.841 770.702V721.624L925.638 736.772Z" fill="white"/>
<path d="M896.191 553.976L871.974 540L830.317 564.047L854.534 578.023L896.191 553.976Z" fill="#246BFD"/>
<path opacity="0.5" d="M896.191 553.976L871.974 540L830.317 564.047L854.534 578.023L896.191 553.976Z" fill="white"/>
<path d="M901.421 629.581L925.638 643.557L886.885 665.922L869.121 655.682L871.465 646.885L901.421 629.581Z" fill="#246BFD"/>
<path opacity="0.5" d="M901.421 629.581L925.638 643.557L886.885 665.922L869.121 655.682L871.465 646.885L901.421 629.581Z" fill="white"/>
<path d="M886.885 759.137L862.685 745.161L842.188 756.998L833.391 790.011L886.885 759.137Z" fill="#246BFD"/>
<path opacity="0.5" d="M886.885 759.137L862.685 745.161L842.188 756.998L833.391 790.011L886.885 759.137Z" fill="white"/>
<path d="M951.841 721.624L927.642 707.647L925.638 708.819V736.772L951.841 721.624Z" fill="#246BFD"/>
<path opacity="0.5" d="M925.638 736.772L951.841 721.624L927.642 707.647L925.638 708.819V736.772Z" fill="white"/>
<path d="M787.199 829.732L763 815.773L830.317 564.047L854.534 578.023L787.199 829.732Z" fill="#246BFD"/>
<path opacity="0.15" d="M787.199 829.732L763 815.773L830.317 564.047L854.534 578.023L787.199 829.732Z" fill="black"/>
<path d="M1336.07 838.364C1329.3 835.274 1322.13 833.131 1314.77 831.996C1310.27 831.25 1305.67 831.29 1301.19 832.115C1297.99 832.768 1294.9 833.842 1291.98 835.308C1282 840.266 1280.55 845.786 1280.23 850.456C1279.91 855.126 1282.49 861.375 1290.74 867.149L1432.39 966.376C1458.17 952.64 1482.13 935.73 1503.72 916.041C1442.17 887.443 1341.74 840.793 1336.07 838.364Z" fill="#263238"/>
<path d="M1381.39 629.535C1390.09 631.233 1393.48 631.828 1397.64 639.028C1401.81 646.229 1408.87 672.992 1410.81 678.546C1412.74 684.099 1413.32 686.12 1412.5 692.301C1411.67 698.754 1407.87 710.217 1406.27 716.501C1405.52 719.405 1405.03 722.241 1404.49 725.213C1403.74 728.254 1402.77 731.239 1401.6 734.145C1401.1 735.562 1400.23 736.818 1399.07 737.779C1398.36 738.408 1397.37 738.476 1396.69 739.053C1396.01 739.63 1395.83 740.649 1394.88 741.125C1393.93 741.6 1392.6 741.329 1391.67 741.872C1390.75 742.547 1389.79 743.171 1388.8 743.74C1387.89 744.006 1387.05 744.489 1386.37 745.15C1385.76 745.812 1385.18 747.306 1384.08 747.187C1382.97 747.069 1382.65 745.88 1382.6 744.861C1382.64 742.862 1383.32 740.927 1384.53 739.342C1385.62 737.576 1386.8 735.875 1388.08 734.247C1389.33 732.737 1390.22 730.968 1390.7 729.068C1391.09 727.794 1390.97 726.181 1389.32 726.911C1387.4 727.794 1385.37 729.628 1383.06 729.22C1381.46 728.949 1381.36 727.692 1382.29 726.639C1383.83 724.904 1385.24 723.059 1386.5 721.12C1387.8 719.133 1388.87 717.044 1390.21 715.108C1390.93 714.102 1391.72 713.143 1392.57 712.238C1394.91 709.691 1394.81 706.21 1395.08 702.966C1395.45 698.466 1395.78 686.918 1395.78 686.918L1385.25 660.986L1381.39 629.535Z" fill="#FFBDA7"/>
<path d="M1395.1 702.966C1395.2 697.616 1395.42 692.267 1395.62 686.918C1392.23 678.664 1388.59 669.579 1385.26 660.986C1388.93 669.579 1392.5 678.211 1395.96 686.884C1395.69 692.25 1395.45 697.616 1395.1 702.966V702.966Z" fill="white"/>
<path d="M1322.69 830.927C1325.67 829.874 1327.9 829.772 1327.87 831.249C1327.46 833.07 1326.82 834.829 1325.95 836.48L1323.57 839.757L1322.43 842.984C1322.43 842.984 1321.04 844.682 1320.95 844.852C1320.87 845.022 1320.41 838.823 1320.41 838.823C1320.41 838.823 1318.73 831.691 1322.69 830.927Z" fill="#263238"/>
<path d="M1354.78 704.851C1354.78 704.851 1347.99 712.918 1343.96 728.032C1340.25 742.079 1337.42 756.343 1335.47 770.742C1334.51 777.178 1332.94 785.296 1330.63 797.913C1328.85 807.627 1323.25 837.414 1323.25 837.414C1323.25 837.414 1326.47 842.78 1330.38 844.411C1335.98 846.754 1341.38 845.684 1342.1 840.674C1342.1 840.674 1345.8 834.765 1351.42 819.515C1354.12 812.514 1356.28 805.315 1357.87 797.981C1358.43 793.379 1358.59 788.737 1358.37 784.107L1380.92 744.895C1383.41 740.599 1386.4 736.61 1389.82 733.008C1391.93 730.845 1393.59 728.282 1394.69 725.468C1398.43 715.278 1392.99 701.574 1392.99 701.574L1354.78 704.851Z" fill="#263238"/>
<path d="M1335.56 770.725C1331.92 793.056 1327.76 815.303 1323.33 837.481C1327.24 815.201 1331.41 792.971 1335.56 770.725Z" fill="white"/>
<path d="M1326.76 854.65L1325.56 854.413C1325.64 853.954 1334.68 807.457 1340.99 787.928C1347.31 768.398 1363.87 729.611 1364.04 729.22L1365.17 729.713C1365.01 730.086 1348.48 768.857 1342.18 788.318C1335.88 807.78 1326.86 854.192 1326.76 854.65Z" fill="black"/>
<path d="M1384.47 717.91H1347.43C1346.07 721.199 1344.94 724.575 1344.03 728.015C1340.61 740.948 1337.97 754.076 1336.14 767.328C1337.04 773.391 1338.05 779.623 1338.99 783.903C1341.48 795.213 1343.05 803.194 1345.02 807.865C1346.92 811.812 1349.16 815.586 1351.73 819.141C1354.36 812.282 1356.47 805.23 1358.03 798.049C1358.58 793.446 1358.75 788.805 1358.52 784.174L1380.59 745.88L1382.17 739.851C1387.66 730.732 1387.03 723.888 1384.47 717.91Z" fill="black"/>
<path d="M1292.32 845.99C1291.66 845.684 1290.84 848.282 1290.78 849.216C1290.71 850.15 1292.47 853.954 1297.11 856.756C1301.75 859.558 1309.71 861.121 1312.7 862.055C1315.69 862.989 1318.08 865.451 1322.02 867.37C1325.52 869.068 1330.8 869.968 1333.11 868.933C1333.56 868.667 1333.94 868.308 1334.23 867.88C1334.53 867.451 1334.72 866.965 1334.81 866.453C1335.44 864.534 1335.39 864.093 1335.15 864.025L1292.32 845.99Z" fill="#37474F"/>
<path d="M1336.8 859.779C1336.49 861.741 1335.84 863.632 1334.88 865.367C1334.2 865.875 1333.43 866.243 1332.61 866.45C1331.8 866.657 1330.94 866.699 1330.11 866.572C1326.51 866.315 1323.05 865.107 1320.07 863.074C1317.8 861.595 1315.34 860.413 1312.77 859.559C1309.23 858.705 1305.75 857.604 1302.36 856.264C1299.83 855.196 1297.48 853.753 1295.38 851.985C1293.68 850.388 1292.1 848.588 1292.27 846.347C1292.65 844.935 1293.46 843.677 1294.59 842.743C1295.71 841.81 1297.1 841.247 1298.55 841.133C1301.34 840.991 1304.13 841.413 1306.76 842.373C1309.3 843.235 1311.94 843.805 1314.62 844.071C1316.45 844.224 1318.61 845.769 1320.04 844.156C1321.73 842.288 1322.4 837.872 1323.53 835.665C1323.72 835.308 1323.98 834.918 1324.37 834.833C1324.76 834.748 1325.4 835.223 1325.76 835.699C1327.42 837.774 1329.55 839.427 1331.98 840.522C1338.53 843.765 1341.57 842.05 1341.57 842.05L1342.18 840.691C1342.18 840.691 1343.49 841.422 1341.82 844.479C1340.42 846.992 1339.24 849.623 1338.29 852.341C1337.47 854.743 1336.96 857.245 1336.8 859.779V859.779Z" fill="#455A64"/>
<path d="M1292.32 846.346C1294.38 838.738 1303 840.776 1308.57 842.695C1310.55 843.391 1312.59 843.863 1314.67 844.105C1312.57 844.011 1310.49 843.639 1308.49 843.001C1302.99 841.303 1294.72 839.129 1292.32 846.397V846.346Z" fill="white"/>
<path d="M1307.98 842.712C1305.18 842.967 1304.41 847.501 1304.41 847.501C1306.92 848.849 1309.66 849.735 1312.48 850.116C1314.44 850.456 1316.46 850.051 1318.14 848.98C1319.82 847.909 1321.04 846.249 1321.56 844.325C1322.75 840.538 1321.67 835.24 1321.45 833.525C1321.32 832.935 1321.42 832.319 1321.74 831.806C1322.06 831.293 1322.56 830.922 1323.14 830.773C1322.66 830.818 1322.2 830.962 1321.77 831.195C1321.35 831.428 1320.98 831.745 1320.69 832.127C1320.39 832.51 1320.18 832.949 1320.06 833.417C1319.94 833.885 1319.92 834.373 1320 834.849C1320.09 836.887 1320 840.912 1319.14 842.253C1318.27 843.595 1313.94 844.189 1307.98 842.712Z" fill="#455A64"/>
<path d="M1378.18 704.851C1382.26 709.672 1384.65 715.697 1384.98 722.003C1385.26 728.129 1383.33 734.153 1379.56 738.985C1378.15 759.636 1374.07 799.391 1374.07 799.391C1379.52 804.995 1380.87 808.629 1384.09 818.683C1386.01 824.796 1393.21 844.444 1395 849.913C1385.45 851.085 1380.26 860.578 1380.26 860.578C1380.26 860.578 1363.44 835.75 1355.36 821.145C1349.36 810.344 1346.6 806.404 1344.81 800.019C1342.61 792.055 1342.01 787.945 1340.04 774.546C1338.07 761.147 1336.19 744.097 1335.22 730.885C1334.25 717.673 1333.52 703.713 1333.52 703.713L1378.18 704.851Z" fill="#263238"/>
<path d="M1380.32 860.526C1370.52 846.091 1360.91 831.487 1352.49 816.203C1349.72 811.746 1347.34 807.059 1345.37 802.193C1343.8 797.193 1342.6 792.084 1341.77 786.909C1337.44 759.318 1334.7 731.5 1333.55 703.594L1334.98 724.482C1336.27 745.387 1338.87 766.19 1342.2 786.841C1343.4 793.634 1344.66 800.647 1347.75 806.897C1357.66 825.341 1368.54 843.253 1380.32 860.56V860.526Z" fill="white"/>
<path d="M1356.57 805.827C1351.62 793.226 1345.7 724.635 1346 700.928H1344.76C1344.66 708.859 1345.25 721.782 1346.27 735.962C1342.25 733.925 1339.65 730.188 1339.65 711.406H1338.41C1338.41 730.29 1340.87 734.859 1346.38 737.389C1348.45 765.477 1352.15 797.964 1355.41 806.302C1360.25 818.631 1385.5 860.289 1385.74 860.645L1386.81 860C1386.56 859.626 1361.37 818.071 1356.57 805.827Z" fill="black"/>
<path d="M1378.93 858.42C1377.42 860.56 1375.7 862.072 1380 864.925C1383.4 867.115 1383.52 868.881 1384.55 871.225C1385.23 873.51 1385.5 875.894 1385.37 878.273C1385.37 878.273 1391.07 869.663 1389.41 864.109C1387.74 858.556 1378.93 858.42 1378.93 858.42Z" fill="#455A64"/>
<path d="M1397.22 853.496C1398.83 855.191 1400.72 856.594 1402.81 857.639C1404.25 858.539 1405.75 859.338 1406.2 861.036C1406.2 861.223 1405.35 862.242 1405.37 862.428C1405.45 863.238 1405.42 864.054 1405.29 864.857C1404.96 867.659 1403.44 869.731 1403.1 872.516C1402.99 873.628 1402.79 874.729 1402.5 875.81C1402.26 877.126 1402.15 878.463 1402.18 879.801C1402.09 881.194 1401.99 882.586 1401.92 883.979C1401.85 884.571 1401.85 885.17 1401.92 885.762C1402.04 886.356 1392.57 891.128 1388.75 892.962C1388.52 893.072 1388.29 893.168 1388.05 893.251C1385.72 893.885 1383.24 893.644 1381.07 892.572C1373.46 889.804 1373.94 887.052 1373.94 887.052C1373.98 885.913 1374.34 884.808 1374.98 883.864C1375.62 882.921 1376.51 882.177 1377.56 881.72C1378.02 881.45 1378.51 881.229 1379.02 881.058V881.058C1380.91 880.355 1382.97 880.254 1384.93 880.769C1385.31 879.638 1385.49 878.448 1385.45 877.254C1385.61 875.469 1385.64 873.676 1385.54 871.887C1385.2 869.867 1384.42 867.946 1383.24 866.266C1381.63 864.042 1379.85 861.172 1378.78 859.609C1377.71 858.047 1377.42 854.277 1383.75 849.743C1389.83 845.412 1394.28 846.346 1395.15 848.129C1395.63 849.992 1396.33 851.792 1397.22 853.496V853.496Z" fill="#455A64"/>
<path d="M1373.84 887.069C1373.84 881.822 1380.53 879.19 1384.89 880.735C1380.43 879.903 1374.48 881.975 1373.84 887.069Z" fill="white"/>
<path opacity="0.1" d="M1380.87 883.486C1381.37 882.191 1382.33 881.123 1383.57 880.48C1384.01 880.532 1384.46 880.617 1384.89 880.735C1384.13 881.465 1381.39 882.552 1380.87 883.486Z" fill="black"/>
<path d="M1407.09 862.683C1408.79 863.396 1407.38 866.079 1405.39 870.24C1403.59 873.315 1402.88 876.901 1403.35 880.429C1403.76 884.114 1402.89 885.914 1401.3 887.222C1399.7 888.53 1387.85 893.709 1387.85 893.709C1390.66 890.15 1392.3 885.797 1392.52 881.261C1393.16 873.144 1393.94 867.93 1397.98 864.381C1399.24 863.364 1400.73 862.676 1402.32 862.38C1403.91 862.083 1405.55 862.188 1407.09 862.683V862.683Z" fill="black"/>
<path d="M1373.84 887.052C1374.02 888.649 1378.56 891.875 1383.91 891.807C1389.26 891.739 1389.71 890.602 1390.55 884.335C1391.38 878.069 1391.96 869.357 1394.67 865.655C1397.39 861.953 1400.96 859.711 1406.17 861.07C1406.76 861.358 1408.38 862.972 1407.78 864.466C1407.78 864.466 1407.78 863.277 1405.64 862.649C1403.81 862.123 1401.62 862.174 1398.56 864.823C1394.98 867.897 1394.18 875.148 1393.77 881.363C1393.37 887.579 1391.43 893.54 1386.28 894.1C1384.06 894.401 1381.8 894.213 1379.66 893.55C1377.52 892.887 1375.55 891.765 1373.89 890.262C1373.57 889.219 1373.55 888.105 1373.84 887.052Z" fill="#37474F"/>
<path d="M1343.17 590.544C1342.47 589.568 1342.05 588.429 1341.93 587.238C1341.81 586.047 1342 584.845 1342.49 583.751C1343.35 581.544 1345.15 579.217 1350.4 576.5C1356.65 573.273 1373.8 570.964 1382.29 582.189C1383.52 583.887 1366.64 615.559 1367.47 622.131C1363.09 617.529 1348.63 601.345 1348.63 601.345C1345.24 599.884 1343.13 598.645 1342.4 595.418C1342.14 593.753 1342.41 592.048 1343.17 590.544Z" fill="#263238"/>
<path d="M1348.63 601.26C1343.54 599.918 1340.3 595.452 1343.17 590.493C1340.99 595.588 1343.9 599.29 1348.63 601.26Z" fill="white"/>
<path d="M1343.17 590.544C1341.03 588.2 1341.55 584.43 1343.17 581.917C1345.04 579.479 1347.54 577.594 1350.4 576.466C1349.1 577.217 1347.84 578.045 1346.63 578.945C1343.08 581.408 1340.43 586.587 1343.23 590.544H1343.17Z" fill="white"/>
<path d="M1345.75 599.562C1345.75 599.562 1341.11 607.119 1341.64 607.747C1342.7 608.595 1343.84 609.35 1345.03 610.006L1345.75 599.562Z" fill="#F0997A"/>
<path d="M1345.75 599.562C1344.59 601.99 1343.2 604.283 1342.06 606.694C1341.91 607.085 1341.59 607.543 1341.81 607.815C1342.1 608.151 1342.44 608.438 1342.83 608.664C1342.37 608.409 1341.6 608.205 1341.5 607.594C1342.44 604.689 1343.87 601.97 1345.75 599.562Z" fill="white"/>
<path d="M1351.49 585.738C1348.38 587.216 1345.7 589.593 1344.69 596.403C1344.44 598.186 1345.83 600.615 1345.2 602.975C1342.5 613.164 1345.71 621.656 1347.68 623.439C1349.01 624.695 1355.97 625.256 1359.57 624.237C1364.14 622.963 1374.07 618.48 1378.81 611.33C1384.38 602.839 1385.6 591.631 1379.47 587.097C1370.83 580.712 1354.8 584.176 1351.49 585.738Z" fill="#FFBDA7"/>
<path d="M1344.73 596.403C1344.73 598.712 1346.09 600.971 1345.31 603.332C1343.86 609.904 1343.76 617.715 1347.72 623.438C1343.37 617.902 1343.37 609.853 1345.03 603.264C1345.82 601.022 1344.52 598.729 1344.73 596.471V596.403Z" fill="white"/>
<path d="M1375.25 616.136L1377.05 628.652C1379.85 629.246 1380.1 632.558 1378.74 635.054L1379.41 638.587L1360.25 642.017L1358.11 624.508L1375.25 616.136Z" fill="#FFBDA7"/>
<path d="M1348.09 623.693C1349.79 624.593 1353.27 625.256 1358.13 624.576L1357.84 622.097C1356.3 622.675 1354.71 623.129 1353.1 623.456C1351.45 623.782 1349.76 623.862 1348.09 623.693V623.693Z" fill="#F0997A"/>
<path d="M1346.9 589.372C1346.77 590.842 1347.16 592.31 1347.99 593.528C1348.82 594.745 1350.05 595.635 1351.47 596.046C1350.71 597.673 1350.43 599.48 1350.66 601.26C1350.72 602.311 1351.08 603.322 1351.7 604.174C1352.32 605.026 1353.17 605.682 1354.15 606.066C1355.5 606.524 1355.85 605.93 1356.38 604.86C1357.06 603.349 1357.92 601.039 1361.17 601.464C1364.89 601.973 1365.87 607.577 1363.7 611.245C1363.28 612.021 1362.68 612.683 1361.95 613.174C1361.22 613.665 1360.38 613.971 1359.5 614.064C1359.02 614.057 1358.55 613.947 1358.11 613.742C1357.67 613.537 1357.29 613.242 1356.97 612.876C1356.97 612.876 1357.21 617.766 1363.51 620.67C1367.45 622.767 1372.02 623.37 1376.37 622.369C1379.3 619.116 1382.06 615.715 1384.64 612.179C1391.43 602.262 1392.87 584.108 1381.24 580.847C1380.68 580.694 1370.1 579.149 1364.94 580.338C1349.02 583.734 1346.94 588.608 1346.9 589.372Z" fill="#263238"/>
<path d="M1375.62 579.574C1374.21 580.587 1373.25 582.1 1372.92 583.802C1372.77 584.651 1372.85 585.523 1373.15 586.331C1373.45 587.139 1373.96 587.854 1374.62 588.404C1378.01 591.071 1383.31 587.963 1383.94 584.023C1384.65 579.37 1379.05 577.026 1375.62 579.574Z" fill="#FF7F41"/>
<path d="M1378.39 581.051C1374.91 583.191 1372.73 588.235 1374.58 591.869C1375.09 592.854 1375.81 593.737 1376.28 594.773C1377.62 598.084 1375.67 601.735 1375.25 605.285C1374.95 608.102 1375.44 610.945 1376.65 613.504C1377.81 615.389 1380.36 615.865 1381.38 617.834C1382.07 619.193 1381.6 620.857 1381.87 622.369C1382.46 625.612 1386.3 627.175 1389.61 627.243C1391.01 627.366 1392.42 627.181 1393.74 626.7C1395.06 626.219 1396.26 625.453 1397.25 624.458C1398.01 623.278 1398.84 622.144 1399.73 621.061C1401.7 619.21 1404.83 619.363 1407 617.665C1407.81 616.955 1408.44 616.069 1408.84 615.077C1409.25 614.084 1409.42 613.012 1409.35 611.942C1409.15 609.798 1408.57 607.706 1407.65 605.76C1406.24 602.364 1407.36 600.173 1408.07 596.726C1408.41 594.864 1408.1 592.943 1407.2 591.28C1406.3 589.617 1404.86 588.309 1403.11 587.572C1400.72 586.621 1397.8 586.774 1395.86 585.059C1394.94 583.972 1394.08 582.838 1393.28 581.663C1389.65 577.672 1382.48 578.555 1378.39 581.051Z" fill="#263238"/>
<path d="M1392.06 638.892C1391.29 636.816 1390.09 634.933 1388.52 633.375C1386.95 631.817 1385.05 630.622 1382.97 629.875C1381.27 629.365 1377.05 628.652 1377.05 628.652C1378.01 630.86 1376.38 632.32 1373.51 632.982C1369.83 633.848 1364.21 633.933 1360.39 631.403L1358.82 630.435C1354.65 631.46 1350.54 632.695 1346.49 634.137C1345.66 634.528 1341.06 636.073 1333.83 652.325C1330.74 659.271 1331.65 666.318 1337.34 671.328C1337.66 675.726 1334.83 685.627 1334.83 685.627C1333.39 693.89 1333.05 702.308 1333.84 710.659C1333.84 710.659 1337.24 719.659 1364.17 719.557C1385.01 719.557 1395.49 709.368 1395.49 709.368C1395.23 704.273 1387.22 686.391 1388.02 680.379C1389.26 671.617 1397.29 655.908 1392.06 638.892Z" fill="#FF7F41"/>
<path d="M1346.49 634.137C1351.98 638.604 1352.4 644.734 1351.59 653.004C1350.77 661.275 1342.47 687.122 1340.77 692.743C1339.07 698.364 1336.65 700.317 1332.37 704.868C1328.09 709.419 1318.08 716.654 1313.11 720.797C1310.8 722.716 1308.74 724.72 1306.55 726.809C1304.16 728.827 1301.63 730.677 1298.98 732.345C1297.74 733.193 1296.3 733.696 1294.8 733.805C1293.85 733.805 1293.02 733.364 1292.12 733.432C1291.22 733.5 1290.42 734.213 1289.43 734.043C1288.45 733.873 1287.46 732.871 1286.39 732.753C1285.26 732.768 1284.13 732.717 1283 732.6C1282.1 732.268 1281.14 732.169 1280.2 732.311C1279.31 732.481 1277.97 733.347 1277.14 732.617C1276.31 731.886 1276.77 730.715 1277.31 729.849C1278.51 728.228 1280.2 727.037 1282.13 726.452C1284.04 725.662 1286 724.988 1287.99 724.431C1289.86 723.928 1291.6 723.018 1293.09 721.765C1294.14 720.967 1294.99 719.574 1293.24 719.218C1291.17 718.793 1288.43 719.082 1286.79 717.401C1285.66 716.246 1286.33 715.176 1287.7 714.87C1289.96 714.371 1292.18 713.701 1294.34 712.866C1296.55 712.017 1298.64 710.947 1300.86 710.166C1302.05 709.783 1303.26 709.471 1304.48 709.232C1307.88 708.536 1309.83 705.666 1311.94 703.204C1314.89 699.807 1319.97 693.32 1323.42 688.667L1328.63 663.448C1331.92 649.761 1333.08 638.281 1346.49 634.137Z" fill="#FFBDA7"/>
<path d="M1351.56 653.004C1350.23 660.476 1348.41 667.851 1346.1 675.081C1345.93 675.676 1345.75 676.253 1345.58 676.779C1343.49 683.861 1341.47 690.246 1340.72 692.726C1339.19 697.82 1337.04 699.926 1333.45 703.662L1332.31 704.851C1327.85 709.589 1318.03 716.637 1313.06 720.797C1310.76 722.716 1308.69 724.703 1306.52 726.792C1304.12 728.816 1301.58 730.672 1298.93 732.345C1297.69 733.187 1296.25 733.685 1294.75 733.789C1293.8 733.873 1292.97 733.347 1292.07 733.415C1291.17 733.483 1290.37 734.196 1289.38 734.026C1288.4 733.856 1287.41 732.854 1286.34 732.753C1285.21 732.763 1284.08 732.706 1282.95 732.583C1282.05 732.259 1281.09 732.16 1280.15 732.294C1279.87 732.294 1279.55 732.481 1279.21 732.6L1278.79 732.736C1278.6 732.807 1278.4 732.852 1278.19 732.871C1278 732.91 1277.81 732.905 1277.62 732.858C1277.43 732.811 1277.26 732.723 1277.11 732.6C1276.17 731.785 1276.72 730.715 1277.26 729.849C1278.46 728.227 1280.15 727.036 1282.08 726.452C1283.99 725.657 1285.95 724.976 1287.94 724.414C1289.81 723.911 1291.55 723.001 1293.03 721.748C1294.09 720.95 1294.94 719.574 1293.19 719.201C1291.12 718.776 1288.38 719.065 1286.75 717.401C1285.61 716.229 1286.28 715.159 1287.65 714.853C1289.91 714.356 1292.13 713.686 1294.29 712.849C1296.5 712 1298.61 710.931 1300.81 710.166C1302 709.772 1303.2 709.46 1304.43 709.232C1307.83 708.536 1309.78 705.649 1311.89 703.204C1314.84 699.807 1319.92 693.303 1323.38 688.65L1328.58 663.431C1331.87 649.676 1333.08 638.196 1346.44 634.069C1347.82 635.187 1348.98 636.559 1349.84 638.111C1352.12 642.119 1352.17 646.993 1351.56 653.004Z" fill="#FFBDA7"/>
<path d="M1277.04 732.617C1276.72 732.296 1276.53 731.87 1276.51 731.42C1276.48 730.969 1276.62 730.526 1276.9 730.171C1278.18 727.709 1280.94 726.656 1283.39 725.824C1285.01 725.06 1286.72 724.49 1288.48 724.126C1290.15 723.61 1291.72 722.811 1293.12 721.765C1291.8 722.953 1290.25 723.865 1288.57 724.448C1285.18 725.28 1281.92 726.584 1278.89 728.32C1277.77 729.22 1275.81 731.105 1277.11 732.549L1277.04 732.617Z" fill="white"/>
<path d="M1286.79 717.469C1284.68 715.057 1288.76 714.751 1290.28 714.242C1294.33 713.206 1297.89 710.981 1301.87 709.861C1303.9 709.549 1305.85 708.814 1307.59 707.704C1310.36 705.513 1313.33 701.115 1315.62 698.347L1323.26 688.616C1324.96 680.125 1327.66 666.896 1329.68 658.269C1331.84 648.08 1335.15 637.194 1346.49 634.137C1335.32 637.313 1332.06 648.13 1329.99 658.337C1327.95 667.1 1325.5 679.921 1323.59 688.905L1315.88 698.618C1313.52 701.403 1310.61 705.717 1307.74 707.976C1305.98 709.089 1304.01 709.824 1301.95 710.132C1297.98 711.236 1294.36 713.41 1290.32 714.378C1288.77 714.87 1284.73 715.091 1286.79 717.52V717.469Z" fill="white"/>
<path opacity="0.3" d="M1384.89 744.606C1384.89 745.266 1385.07 745.912 1385.42 746.474C1385.77 746.033 1386.08 745.489 1386.39 745.15C1387.07 744.489 1387.9 744.005 1388.81 743.74C1389.8 743.171 1390.76 742.547 1391.68 741.872C1392.6 741.329 1393.82 741.651 1394.89 741.125C1395.96 740.598 1396 739.664 1396.71 739.053C1397.42 738.442 1398.41 738.408 1399.09 737.779C1400.24 736.818 1401.12 735.562 1401.62 734.145C1402.79 731.239 1403.75 728.254 1404.51 725.213C1405.05 722.241 1405.54 719.405 1406.29 716.501C1407.89 710.217 1411.69 698.754 1412.52 692.301C1413.32 686.12 1412.74 684.082 1410.82 678.546C1408.9 673.009 1401.82 646.28 1397.66 639.028C1393.72 632.235 1390.44 631.318 1382.7 629.79L1382.24 629.671L1381.46 629.501L1380.85 629.365L1380.07 629.212L1379.61 629.128L1378.49 628.907L1377.64 628.754H1377.42H1377.06L1376.16 622.488H1376.38C1377.76 620.789 1379.27 619.176 1380.85 617.274C1381.04 617.497 1381.21 617.742 1381.34 618.004C1382.06 619.363 1381.56 621.01 1381.83 622.522C1382.43 625.782 1386.27 627.327 1389.58 627.412C1390.98 627.529 1392.39 627.339 1393.71 626.855C1395.03 626.371 1396.23 625.605 1397.22 624.61C1397.99 623.435 1398.81 622.301 1399.7 621.214C1401.67 619.363 1404.79 619.516 1406.99 617.817C1407.79 617.103 1408.41 616.214 1408.82 615.219C1409.22 614.224 1409.39 613.149 1409.31 612.077C1409.12 609.932 1408.54 607.839 1407.61 605.896C1406.2 602.5 1407.32 600.309 1408.04 596.878C1408.37 595.016 1408.07 593.095 1407.17 591.429C1406.27 589.763 1404.84 588.451 1403.1 587.708C1400.68 586.757 1397.76 586.927 1395.83 585.195C1394.92 584.108 1394.06 582.974 1393.26 581.798C1390.55 578.826 1385.88 578.572 1381.97 579.659C1381.01 578.989 1379.85 578.65 1378.68 578.691C1373.38 574.581 1366.47 573.596 1360.54 574.071C1358.31 575.008 1356.29 576.389 1354.61 578.13C1349.28 583.412 1346.12 591.172 1347.51 598.509C1347.79 599.884 1348.21 601.209 1348.43 602.584C1348.99 606.1 1348.21 609.683 1348.23 613.249C1348.24 616.815 1349.36 620.755 1352.46 622.505C1354.8 623.812 1357.67 623.557 1360.34 623.897C1364.72 624.457 1364.21 627.158 1364.38 630.877C1364.45 631.446 1364.4 632.025 1364.24 632.575C1364.17 632.773 1364.07 632.958 1363.94 633.118C1362.8 634.528 1359.57 635.088 1358.14 635.564C1355.32 636.249 1352.56 637.181 1349.89 638.349C1348.67 638.97 1347.61 639.872 1346.8 640.981C1343.56 645.532 1342.18 650.95 1340.81 656.265C1339.53 661.19 1338.19 666.115 1336.78 671.006C1335.51 675.444 1334.19 679.859 1332.81 684.252C1331.73 688.249 1330.12 692.082 1328.02 695.647C1325.39 699.671 1321.62 702.796 1318.22 706.226C1310.53 714.004 1304.09 723.956 1293.8 727.692C1289.84 729.118 1285.6 729.509 1281.54 730.596C1280.13 730.969 1278.53 731.717 1278.14 733.024C1278.34 733.005 1278.54 732.96 1278.74 732.888L1279.16 732.753C1279.5 732.634 1279.82 732.515 1280.09 732.447C1281.04 732.312 1282 732.412 1282.9 732.736C1284.02 732.859 1285.16 732.916 1286.29 732.905C1287.36 733.007 1288.16 733.992 1289.33 734.179C1290.5 734.366 1291.03 733.636 1292.02 733.568C1293 733.5 1293.71 734.026 1294.7 733.941C1296.19 733.837 1297.64 733.339 1298.88 732.498C1301.53 730.824 1304.07 728.969 1306.47 726.945C1308.64 724.856 1310.71 722.869 1313.01 720.95C1317.98 716.789 1327.8 709.742 1332.26 705.004L1333.4 703.815C1336.97 700.096 1339.12 698.007 1340.65 692.896C1341.4 690.416 1343.42 684.031 1345.51 676.949L1346.04 675.251C1346.82 676.206 1347.23 677.413 1347.19 678.648C1347.82 686.901 1349.79 695.256 1351.13 703.475C1352.08 709.334 1353.05 715.193 1353.49 721.103C1353.83 725.382 1353.88 729.594 1353.95 733.941L1354.36 764.509C1354.36 766.207 1354.36 767.906 1354.44 769.706C1354.46 774.516 1354.79 779.321 1355.43 784.09C1355.98 788.293 1356.9 792.44 1358.16 796.487C1358.47 797.472 1358.79 798.457 1359.15 799.442C1362.66 809.206 1368.18 818.122 1373.5 826.919C1378.89 836.318 1383.73 846.026 1387.98 855.992C1388.85 857.735 1389.49 859.585 1389.88 861.494C1390.43 864.789 1389.53 868.134 1389.27 871.463C1389.02 874.791 1389.39 877.984 1389.27 881.244C1389.35 884.526 1388.4 887.749 1386.56 890.466C1385.23 892.176 1383.39 893.42 1381.31 894.015C1382.94 894.299 1384.6 894.351 1386.25 894.168C1387.2 894.081 1388.11 893.766 1388.92 893.251C1393.12 891.479 1397.22 889.483 1401.21 887.273C1402.81 886 1403.67 884.182 1403.28 880.48C1402.79 876.953 1403.5 873.364 1405.3 870.291C1406.39 868.424 1407.23 866.419 1407.78 864.33C1408.21 862.887 1406.71 861.392 1406.09 861.104C1405.66 859.405 1404.17 858.59 1402.69 857.707C1400.6 856.662 1398.72 855.259 1397.12 853.564C1396.2 851.854 1395.49 850.041 1395 848.163C1394.78 847.75 1394.44 847.413 1394.03 847.195C1391.41 839.672 1385.72 824.032 1384.04 818.716C1380.88 808.646 1379.47 805.012 1374.02 799.408C1374.02 799.408 1377.03 770.062 1378.78 748.716L1380.88 745.031C1381.1 744.64 1381.33 744.266 1381.56 743.893C1383.92 740.049 1386.68 736.463 1389.78 733.194C1390.09 732.871 1390.39 732.498 1390.7 732.141C1390.24 732.905 1389.8 733.67 1389.29 734.417C1387.27 737.508 1384.74 740.819 1384.89 744.606ZM1395.28 709.589L1395.49 709.402C1395.39 708.297 1395.18 707.205 1394.86 706.142C1394.47 704.698 1393.93 702.983 1393.33 701.132C1393.14 700.554 1392.94 699.96 1392.74 699.434C1392.04 697.362 1391.29 695.154 1390.61 693.014C1390.39 692.352 1390.19 691.69 1390 691.044C1389.82 690.399 1389.56 689.618 1389.37 688.939C1389.19 688.259 1389.1 687.971 1388.98 687.495C1388.98 687.342 1388.9 687.173 1388.87 687.02C1388.83 686.867 1388.71 686.391 1388.64 686.103C1388.51 685.542 1388.39 685.016 1388.3 684.506L1388.2 683.946C1388.19 683.816 1388.19 683.685 1388.2 683.555C1388.15 683.309 1388.12 683.059 1388.1 682.808V682.299C1388.08 681.993 1388.08 681.687 1388.1 681.382C1388.08 681.088 1388.08 680.793 1388.1 680.499C1388.56 677.862 1389.19 675.259 1389.99 672.704C1390.53 670.734 1391.14 668.628 1391.68 666.386C1393.3 669.392 1394.86 672.398 1396.42 675.421C1397.76 677.811 1398.9 680.31 1399.82 682.893C1401.69 688.769 1401.23 695.137 1400.51 701.268C1399.77 708.261 1398.22 715.144 1395.9 721.782C1396.39 717.713 1396.19 713.588 1395.28 709.589V709.589Z" fill="black"/>
</g>
<defs>
<clipPath id="clip0_423_494">
<rect width="1728" height="1117" fill="white"/>
</clipPath>
</defs>
</svg>
